<svg width="25" height="24" viewBox="0 0 25 24" fill="none" xmlns="http://www.w3.org/2000/svg">
<path d="M11.4341 14.29C11.3411 14.1963 11.2305 14.1219 11.1086 14.0711C10.9868 14.0203 10.8561 13.9942 10.7241 13.9942C10.592 13.9942 10.4613 14.0203 10.3395 14.0711C10.2176 14.1219 10.107 14.1963 10.0141 14.29L7.72406 16.59V4C7.72406 3.73478 7.6187 3.48043 7.43117 3.29289C7.24363 3.10536 6.98928 3 6.72406 3C6.45885 3 6.20449 3.10536 6.01696 3.29289C5.82942 3.48043 5.72406 3.73478 5.72406 4V16.59L3.43406 14.29C3.24576 14.1017 2.99036 13.9959 2.72406 13.9959C2.45776 13.9959 2.20237 14.1017 2.01406 14.29C1.82576 14.4783 1.71997 14.7337 1.71997 15C1.71997 15.2663 1.82576 15.5217 2.01406 15.71L6.01406 19.71C6.10702 19.8037 6.21763 19.8781 6.33949 19.9289C6.46134 19.9797 6.59205 20.0058 6.72406 20.0058C6.85607 20.0058 6.98678 19.9797 7.10864 19.9289C7.2305 19.8781 7.3411 19.8037 7.43406 19.71L11.4341 15.71C11.5278 15.617 11.6022 15.5064 11.653 15.3846C11.7037 15.2627 11.7299 15.132 11.7299 15C11.7299 14.868 11.7037 14.7373 11.653 14.6154C11.6022 14.4936 11.5278 14.383 11.4341 14.29Z" fill="#8E1C46"/>
<path d="M20.7241 17H15.7241C15.4589 17 15.2046 16.8946 15.017 16.7071C14.8295 16.5196 14.7241 16.2652 14.7241 16C14.7241 15.7348 14.8295 15.4804 15.017 15.2929C15.2046 15.1054 15.4589 15 15.7241 15H20.7241C20.9893 15 21.2437 15.1054 21.4312 15.2929C21.6188 15.4804 21.7241 15.7348 21.7241 16C21.7241 16.2652 21.6188 16.5196 21.4312 16.7071C21.2437 16.8946 20.9893 17 20.7241 17ZM20.7241 12H13.7241C13.4589 12 13.2046 11.8946 13.017 11.7071C12.8295 11.5196 12.7241 11.2652 12.7241 11C12.7241 10.7348 12.8295 10.4804 13.017 10.2929C13.2046 10.1054 13.4589 10 13.7241 10H20.7241C20.9893 10 21.2437 10.1054 21.4312 10.2929C21.6188 10.4804 21.7241 10.7348 21.7241 11C21.7241 11.2652 21.6188 11.5196 21.4312 11.7071C21.2437 11.8946 20.9893 12 20.7241 12ZM20.7241 7H10.7241C10.4589 7 10.2046 6.89464 10.017 6.70711C9.82948 6.51957 9.72412 6.26522 9.72412 6C9.72412 5.73478 9.82948 5.48043 10.017 5.29289C10.2046 5.10536 10.4589 5 10.7241 5H20.7241C20.9893 5 21.2437 5.10536 21.4312 5.29289C21.6188 5.48043 21.7241 5.73478 21.7241 6C21.7241 6.26522 21.6188 6.51957 21.4312 6.70711C21.2437 6.89464 20.9893 7 20.7241 7Z" fill="#1C1C1C"/>
</svg>
