<svg width="25" height="24" viewBox="0 0 25 24" fill="none" xmlns="http://www.w3.org/2000/svg">
<path d="M11.4341 7.29006L7.43406 3.29006C7.3411 3.19633 7.2305 3.12194 7.10864 3.07117C6.98678 3.0204 6.85607 2.99426 6.72406 2.99426C6.59205 2.99426 6.46134 3.0204 6.33949 3.07117C6.21763 3.12194 6.10702 3.19633 6.01406 3.29006L2.01406 7.29006C1.82576 7.47836 1.71997 7.73376 1.71997 8.00006C1.71997 8.26636 1.82576 8.52176 2.01406 8.71006C2.20237 8.89836 2.45776 9.00415 2.72406 9.00415C2.99036 9.00415 3.24576 8.89836 3.43406 8.71006L5.72406 6.41006V19.0001C5.72406 19.2653 5.82942 19.5196 6.01696 19.7072C6.20449 19.8947 6.45885 20.0001 6.72406 20.0001C6.98928 20.0001 7.24363 19.8947 7.43117 19.7072C7.6187 19.5196 7.72406 19.2653 7.72406 19.0001V6.41006L10.0141 8.71006C10.107 8.80379 10.2176 8.87818 10.3395 8.92895C10.4613 8.97972 10.592 9.00586 10.7241 9.00586C10.8561 9.00586 10.9868 8.97972 11.1086 8.92895C11.2305 8.87818 11.3411 8.80379 11.4341 8.71006C11.5278 8.6171 11.6022 8.5065 11.653 8.38464C11.7037 8.26278 11.7299 8.13207 11.7299 8.00006C11.7299 7.86805 11.7037 7.73734 11.653 7.61548C11.6022 7.49362 11.5278 7.38302 11.4341 7.29006Z" fill="#82BE3C"/>
<path d="M20.7241 18H10.7241C10.4589 18 10.2046 17.8946 10.017 17.7071C9.82948 17.5196 9.72412 17.2652 9.72412 17C9.72412 16.7348 9.82948 16.4804 10.017 16.2929C10.2046 16.1054 10.4589 16 10.7241 16H20.7241C20.9893 16 21.2437 16.1054 21.4312 16.2929C21.6188 16.4804 21.7241 16.7348 21.7241 17C21.7241 17.2652 21.6188 17.5196 21.4312 17.7071C21.2437 17.8946 20.9893 18 20.7241 18ZM20.7241 13H13.7241C13.4589 13 13.2046 12.8946 13.017 12.7071C12.8295 12.5196 12.7241 12.2652 12.7241 12C12.7241 11.7348 12.8295 11.4804 13.017 11.2929C13.2046 11.1054 13.4589 11 13.7241 11H20.7241C20.9893 11 21.2437 11.1054 21.4312 11.2929C21.6188 11.4804 21.7241 11.7348 21.7241 12C21.7241 12.2652 21.6188 12.5196 21.4312 12.7071C21.2437 12.8946 20.9893 13 20.7241 13ZM20.7241 8H15.7241C15.4589 8 15.2046 7.89464 15.017 7.70711C14.8295 7.51957 14.7241 7.26522 14.7241 7C14.7241 6.73478 14.8295 6.48043 15.017 6.29289C15.2046 6.10536 15.4589 6 15.7241 6H20.7241C20.9893 6 21.2437 6.10536 21.4312 6.29289C21.6188 6.48043 21.7241 6.73478 21.7241 7C21.7241 7.26522 21.6188 7.51957 21.4312 7.70711C21.2437 7.89464 20.9893 8 20.7241 8Z" fill="#1C1C1C"/>
</svg>
